<mxfile host="app.diagrams.net" agent="Mozilla/5.0 (Windows NT 10.0; Win64; x64) AppleWebKit/537.36 (KHTML, like Gecko) Chrome/131.0.0.0 Safari/537.36" version="25.0.3">
  <diagram name="หน้า-1" id="PzbtHWjbDMWsC_KnwCjL">
    <mxGraphModel dx="420" dy="228" grid="1" gridSize="10" guides="1" tooltips="1" connect="1" arrows="1" fold="1" page="1" pageScale="1" pageWidth="827" pageHeight="1169" math="0" shadow="0">
      <root>
        <mxCell id="0" />
        <mxCell id="1" parent="0" />
        <mxCell id="2a6KX6YkP8PHLypZ1eYJ-5" value="person" style="shape=umlActor;verticalLabelPosition=bottom;verticalAlign=top;html=1;" vertex="1" parent="1">
          <mxGeometry x="60" y="60" width="30" height="60" as="geometry" />
        </mxCell>
        <mxCell id="2a6KX6YkP8PHLypZ1eYJ-6" value="Login" style="html=1;whiteSpace=wrap;" vertex="1" parent="1">
          <mxGeometry x="304" y="60" width="110" height="50" as="geometry" />
        </mxCell>
        <mxCell id="2a6KX6YkP8PHLypZ1eYJ-7" value="Authenticate" style="html=1;whiteSpace=wrap;" vertex="1" parent="1">
          <mxGeometry x="620" y="60" width="110" height="50" as="geometry" />
        </mxCell>
        <mxCell id="2a6KX6YkP8PHLypZ1eYJ-8" value="" style="html=1;points=[[0,0,0,0,5],[0,1,0,0,-5],[1,0,0,0,5],[1,1,0,0,-5]];perimeter=orthogonalPerimeter;outlineConnect=0;targetShapes=umlLifeline;portConstraint=eastwest;newEdgeStyle={&quot;curved&quot;:0,&quot;rounded&quot;:0};" vertex="1" parent="1">
          <mxGeometry x="70" y="170" width="10" height="870" as="geometry" />
        </mxCell>
        <mxCell id="2a6KX6YkP8PHLypZ1eYJ-9" value="" style="endArrow=none;dashed=1;html=1;dashPattern=1 3;strokeWidth=2;rounded=0;" edge="1" parent="1">
          <mxGeometry width="50" height="50" relative="1" as="geometry">
            <mxPoint x="74.76" y="170" as="sourcePoint" />
            <mxPoint x="74.76" y="140" as="targetPoint" />
          </mxGeometry>
        </mxCell>
        <mxCell id="2a6KX6YkP8PHLypZ1eYJ-11" value="" style="html=1;points=[[0,0,0,0,5],[0,1,0,0,-5],[1,0,0,0,5],[1,1,0,0,-5]];perimeter=orthogonalPerimeter;outlineConnect=0;targetShapes=umlLifeline;portConstraint=eastwest;newEdgeStyle={&quot;curved&quot;:0,&quot;rounded&quot;:0};" vertex="1" parent="1">
          <mxGeometry x="354" y="160" width="10" height="140" as="geometry" />
        </mxCell>
        <mxCell id="2a6KX6YkP8PHLypZ1eYJ-12" value="" style="endArrow=open;endFill=1;endSize=12;html=1;rounded=0;" edge="1" parent="1">
          <mxGeometry width="160" relative="1" as="geometry">
            <mxPoint x="90" y="200" as="sourcePoint" />
            <mxPoint x="350" y="200" as="targetPoint" />
          </mxGeometry>
        </mxCell>
        <mxCell id="2a6KX6YkP8PHLypZ1eYJ-13" value="" style="endArrow=none;dashed=1;html=1;dashPattern=1 3;strokeWidth=2;rounded=0;entryX=0.5;entryY=1;entryDx=0;entryDy=0;" edge="1" parent="1">
          <mxGeometry width="50" height="50" relative="1" as="geometry">
            <mxPoint x="676" y="160" as="sourcePoint" />
            <mxPoint x="675" y="110" as="targetPoint" />
          </mxGeometry>
        </mxCell>
        <mxCell id="2a6KX6YkP8PHLypZ1eYJ-14" value="" style="html=1;points=[[0,0,0,0,5],[0,1,0,0,-5],[1,0,0,0,5],[1,1,0,0,-5]];perimeter=orthogonalPerimeter;outlineConnect=0;targetShapes=umlLifeline;portConstraint=eastwest;newEdgeStyle={&quot;curved&quot;:0,&quot;rounded&quot;:0};" vertex="1" parent="1">
          <mxGeometry x="670" y="160" width="10" height="140" as="geometry" />
        </mxCell>
        <mxCell id="2a6KX6YkP8PHLypZ1eYJ-15" value="" style="endArrow=open;endFill=1;endSize=12;html=1;rounded=0;" edge="1" parent="1" target="2a6KX6YkP8PHLypZ1eYJ-14">
          <mxGeometry width="160" relative="1" as="geometry">
            <mxPoint x="364" y="220" as="sourcePoint" />
            <mxPoint x="624" y="220" as="targetPoint" />
          </mxGeometry>
        </mxCell>
        <mxCell id="2a6KX6YkP8PHLypZ1eYJ-16" value="" style="shape=umlDestroy;whiteSpace=wrap;html=1;strokeWidth=3;targetShapes=umlLifeline;" vertex="1" parent="1">
          <mxGeometry x="351" y="300" width="16" height="10" as="geometry" />
        </mxCell>
        <mxCell id="2a6KX6YkP8PHLypZ1eYJ-17" value="" style="endArrow=block;dashed=1;endFill=0;endSize=12;html=1;rounded=0;entryX=1.343;entryY=0.736;entryDx=0;entryDy=0;entryPerimeter=0;" edge="1" parent="1" source="2a6KX6YkP8PHLypZ1eYJ-14" target="2a6KX6YkP8PHLypZ1eYJ-11">
          <mxGeometry width="160" relative="1" as="geometry">
            <mxPoint x="413" y="260" as="sourcePoint" />
            <mxPoint x="573" y="260" as="targetPoint" />
          </mxGeometry>
        </mxCell>
        <mxCell id="2a6KX6YkP8PHLypZ1eYJ-18" value="" style="shape=umlDestroy;whiteSpace=wrap;html=1;strokeWidth=3;targetShapes=umlLifeline;" vertex="1" parent="1">
          <mxGeometry x="667" y="300" width="16" height="10" as="geometry" />
        </mxCell>
        <mxCell id="2a6KX6YkP8PHLypZ1eYJ-19" value="" style="endArrow=block;dashed=1;endFill=0;endSize=12;html=1;rounded=0;" edge="1" parent="1" target="2a6KX6YkP8PHLypZ1eYJ-8">
          <mxGeometry width="160" relative="1" as="geometry">
            <mxPoint x="350" y="260" as="sourcePoint" />
            <mxPoint x="170" y="260" as="targetPoint" />
          </mxGeometry>
        </mxCell>
        <mxCell id="2a6KX6YkP8PHLypZ1eYJ-20" value="กรอก ID และ Pwd" style="text;html=1;align=center;verticalAlign=middle;resizable=0;points=[];autosize=1;strokeColor=none;fillColor=none;" vertex="1" parent="1">
          <mxGeometry x="120" y="168" width="120" height="30" as="geometry" />
        </mxCell>
        <mxCell id="2a6KX6YkP8PHLypZ1eYJ-21" value="เช็ค ID และ Pwd" style="text;html=1;align=center;verticalAlign=middle;resizable=0;points=[];autosize=1;strokeColor=none;fillColor=none;" vertex="1" parent="1">
          <mxGeometry x="445" y="188" width="110" height="30" as="geometry" />
        </mxCell>
        <mxCell id="2a6KX6YkP8PHLypZ1eYJ-22" value="return ID และ Pwd" style="text;html=1;align=center;verticalAlign=middle;resizable=0;points=[];autosize=1;strokeColor=none;fillColor=none;" vertex="1" parent="1">
          <mxGeometry x="440" y="228" width="120" height="30" as="geometry" />
        </mxCell>
        <mxCell id="2a6KX6YkP8PHLypZ1eYJ-23" value="return สิทธิการใช้งาน" style="text;html=1;align=center;verticalAlign=middle;resizable=0;points=[];autosize=1;strokeColor=none;fillColor=none;" vertex="1" parent="1">
          <mxGeometry x="140" y="228" width="130" height="30" as="geometry" />
        </mxCell>
        <mxCell id="2a6KX6YkP8PHLypZ1eYJ-24" value="alt" style="shape=umlFrame;whiteSpace=wrap;html=1;pointerEvents=0;" vertex="1" parent="1">
          <mxGeometry x="4" y="310" width="806" height="330" as="geometry" />
        </mxCell>
        <mxCell id="2a6KX6YkP8PHLypZ1eYJ-25" value="Manager" style="text;html=1;align=center;verticalAlign=middle;resizable=0;points=[];autosize=1;strokeColor=none;fillColor=none;" vertex="1" parent="1">
          <mxGeometry x="75" y="308" width="70" height="30" as="geometry" />
        </mxCell>
        <mxCell id="2a6KX6YkP8PHLypZ1eYJ-26" value="manager" style="shape=umlActor;verticalLabelPosition=bottom;verticalAlign=top;html=1;" vertex="1" parent="1">
          <mxGeometry x="150" y="330" width="20" height="40" as="geometry" />
        </mxCell>
        <mxCell id="2a6KX6YkP8PHLypZ1eYJ-27" value="Add Account" style="html=1;whiteSpace=wrap;" vertex="1" parent="1">
          <mxGeometry x="310" y="330" width="80" height="40" as="geometry" />
        </mxCell>
        <mxCell id="2a6KX6YkP8PHLypZ1eYJ-28" value="Detail Account" style="html=1;whiteSpace=wrap;" vertex="1" parent="1">
          <mxGeometry x="620" y="330" width="90" height="40" as="geometry" />
        </mxCell>
        <mxCell id="2a6KX6YkP8PHLypZ1eYJ-29" value="alt" style="shape=umlFrame;whiteSpace=wrap;html=1;pointerEvents=0;" vertex="1" parent="1">
          <mxGeometry x="90" y="480" width="670" height="120" as="geometry" />
        </mxCell>
        <mxCell id="2a6KX6YkP8PHLypZ1eYJ-30" value="alt" style="shape=umlFrame;whiteSpace=wrap;html=1;pointerEvents=0;" vertex="1" parent="1">
          <mxGeometry x="90" y="600" width="670" height="200" as="geometry" />
        </mxCell>
        <mxCell id="2a6KX6YkP8PHLypZ1eYJ-31" value="" style="html=1;points=[[0,0,0,0,5],[0,1,0,0,-5],[1,0,0,0,5],[1,1,0,0,-5]];perimeter=orthogonalPerimeter;outlineConnect=0;targetShapes=umlLifeline;portConstraint=eastwest;newEdgeStyle={&quot;curved&quot;:0,&quot;rounded&quot;:0};" vertex="1" parent="1">
          <mxGeometry x="160" y="400" width="10" height="380" as="geometry" />
        </mxCell>
        <mxCell id="2a6KX6YkP8PHLypZ1eYJ-32" value="" style="shape=umlDestroy;whiteSpace=wrap;html=1;strokeWidth=3;targetShapes=umlLifeline;" vertex="1" parent="1">
          <mxGeometry x="150" y="780" width="20" height="10" as="geometry" />
        </mxCell>
        <mxCell id="2a6KX6YkP8PHLypZ1eYJ-33" value="" style="endArrow=none;dashed=1;html=1;dashPattern=1 3;strokeWidth=2;rounded=0;entryX=0.5;entryY=1;entryDx=0;entryDy=0;" edge="1" parent="1">
          <mxGeometry width="50" height="50" relative="1" as="geometry">
            <mxPoint x="360" y="160" as="sourcePoint" />
            <mxPoint x="359" y="110" as="targetPoint" />
          </mxGeometry>
        </mxCell>
        <mxCell id="2a6KX6YkP8PHLypZ1eYJ-34" value="" style="endArrow=none;dashed=1;html=1;dashPattern=1 3;strokeWidth=2;rounded=0;entryX=0.5;entryY=1;entryDx=0;entryDy=0;" edge="1" parent="1">
          <mxGeometry width="50" height="50" relative="1" as="geometry">
            <mxPoint x="350" y="400" as="sourcePoint" />
            <mxPoint x="351" y="370" as="targetPoint" />
          </mxGeometry>
        </mxCell>
        <mxCell id="2a6KX6YkP8PHLypZ1eYJ-35" value="" style="html=1;points=[[0,0,0,0,5],[0,1,0,0,-5],[1,0,0,0,5],[1,1,0,0,-5]];perimeter=orthogonalPerimeter;outlineConnect=0;targetShapes=umlLifeline;portConstraint=eastwest;newEdgeStyle={&quot;curved&quot;:0,&quot;rounded&quot;:0};" vertex="1" parent="1">
          <mxGeometry x="345" y="400" width="10" height="160" as="geometry" />
        </mxCell>
        <mxCell id="2a6KX6YkP8PHLypZ1eYJ-36" value="" style="endArrow=none;dashed=1;html=1;dashPattern=1 3;strokeWidth=2;rounded=0;entryX=0.5;entryY=1;entryDx=0;entryDy=0;" edge="1" parent="1">
          <mxGeometry width="50" height="50" relative="1" as="geometry">
            <mxPoint x="665" y="400" as="sourcePoint" />
            <mxPoint x="666" y="370" as="targetPoint" />
          </mxGeometry>
        </mxCell>
        <mxCell id="2a6KX6YkP8PHLypZ1eYJ-37" value="" style="html=1;points=[[0,0,0,0,5],[0,1,0,0,-5],[1,0,0,0,5],[1,1,0,0,-5]];perimeter=orthogonalPerimeter;outlineConnect=0;targetShapes=umlLifeline;portConstraint=eastwest;newEdgeStyle={&quot;curved&quot;:0,&quot;rounded&quot;:0};" vertex="1" parent="1">
          <mxGeometry x="660" y="400" width="10" height="160" as="geometry" />
        </mxCell>
        <mxCell id="2a6KX6YkP8PHLypZ1eYJ-39" value="" style="endArrow=open;endFill=1;endSize=12;html=1;rounded=0;" edge="1" parent="1">
          <mxGeometry width="160" relative="1" as="geometry">
            <mxPoint x="80" y="420" as="sourcePoint" />
            <mxPoint x="150" y="420" as="targetPoint" />
          </mxGeometry>
        </mxCell>
        <mxCell id="2a6KX6YkP8PHLypZ1eYJ-40" value="ทำรายการ" style="text;html=1;align=center;verticalAlign=middle;resizable=0;points=[];autosize=1;strokeColor=none;fillColor=none;" vertex="1" parent="1">
          <mxGeometry x="75" y="390" width="70" height="30" as="geometry" />
        </mxCell>
        <mxCell id="2a6KX6YkP8PHLypZ1eYJ-42" value="" style="endArrow=open;endFill=1;endSize=12;html=1;rounded=0;entryX=0.076;entryY=0.239;entryDx=0;entryDy=0;entryPerimeter=0;" edge="1" parent="1" source="2a6KX6YkP8PHLypZ1eYJ-31" target="2a6KX6YkP8PHLypZ1eYJ-35">
          <mxGeometry width="160" relative="1" as="geometry">
            <mxPoint x="180" y="440" as="sourcePoint" />
            <mxPoint x="340" y="440" as="targetPoint" />
          </mxGeometry>
        </mxCell>
        <mxCell id="2a6KX6YkP8PHLypZ1eYJ-43" value="Add Account" style="text;html=1;align=center;verticalAlign=middle;resizable=0;points=[];autosize=1;strokeColor=none;fillColor=none;" vertex="1" parent="1">
          <mxGeometry x="210" y="410" width="90" height="30" as="geometry" />
        </mxCell>
        <mxCell id="2a6KX6YkP8PHLypZ1eYJ-44" value="" style="endArrow=open;endFill=1;endSize=14;html=1;rounded=0;" edge="1" parent="1" target="2a6KX6YkP8PHLypZ1eYJ-37">
          <mxGeometry width="160" relative="1" as="geometry">
            <mxPoint x="355" y="460" as="sourcePoint" />
            <mxPoint x="515" y="460" as="targetPoint" />
          </mxGeometry>
        </mxCell>
      </root>
    </mxGraphModel>
  </diagram>
</mxfile>
